<svg xmlns="http://www.w3.org/2000/svg" xmlns:xlink="http://www.w3.org/1999/xlink" width="500" zoomAndPan="magnify" viewBox="0 0 375 374.999991" height="500" preserveAspectRatio="xMidYMid meet" version="1.0"><defs><clipPath id="b16889fcc6"><path d="M 119.242188 112.5 L 269.242188 112.5 L 269.242188 262.5 L 119.242188 262.5 Z M 119.242188 112.5 " clip-rule="nonzero"/></clipPath><clipPath id="4573844c6b"><path d="M 119.242188 187.5 C 119.242188 146.078125 152.820312 112.5 194.242188 112.5 L 228.699219 112.5 C 251.089844 112.5 269.242188 130.652344 269.242188 153.039062 L 269.242188 187.5 C 269.242188 228.921875 235.664062 262.5 194.242188 262.5 C 152.820312 262.5 119.242188 228.921875 119.242188 187.5 Z M 119.242188 187.5 " clip-rule="nonzero"/></clipPath><linearGradient x1="-0.00000736103" gradientTransform="matrix(0.810811, 0, 0, 0.810811, 119.241579, 112.499997)" y1="92" x2="184.999983" gradientUnits="userSpaceOnUse" y2="92" id="4dee30ec24"><stop stop-opacity="1" stop-color="rgb(100%, 85.899353%, 43.099976%)" offset="0"/><stop stop-opacity="1" stop-color="rgb(100%, 85.708618%, 43.002319%)" offset="0.03125"/><stop stop-opacity="1" stop-color="rgb(100%, 85.327148%, 42.808533%)" offset="0.0625"/><stop stop-opacity="1" stop-color="rgb(100%, 84.945679%, 42.614746%)" offset="0.09375"/><stop stop-opacity="1" stop-color="rgb(100%, 84.564209%, 42.420959%)" offset="0.125"/><stop stop-opacity="1" stop-color="rgb(100%, 84.184265%, 42.227173%)" offset="0.15625"/><stop stop-opacity="1" stop-color="rgb(100%, 83.802795%, 42.033386%)" offset="0.1875"/><stop stop-opacity="1" stop-color="rgb(100%, 83.421326%, 41.8396%)" offset="0.21875"/><stop stop-opacity="1" stop-color="rgb(100%, 83.039856%, 41.645813%)" offset="0.25"/><stop stop-opacity="1" stop-color="rgb(100%, 82.658386%, 41.452026%)" offset="0.28125"/><stop stop-opacity="1" stop-color="rgb(100%, 82.276917%, 41.25824%)" offset="0.3125"/><stop stop-opacity="1" stop-color="rgb(100%, 81.895447%, 41.064453%)" offset="0.34375"/><stop stop-opacity="1" stop-color="rgb(100%, 81.515503%, 40.870667%)" offset="0.375"/><stop stop-opacity="1" stop-color="rgb(100%, 81.134033%, 40.67688%)" offset="0.40625"/><stop stop-opacity="1" stop-color="rgb(100%, 80.752563%, 40.483093%)" offset="0.4375"/><stop stop-opacity="1" stop-color="rgb(100%, 80.371094%, 40.289307%)" offset="0.46875"/><stop stop-opacity="1" stop-color="rgb(100%, 79.989624%, 40.09552%)" offset="0.5"/><stop stop-opacity="1" stop-color="rgb(100%, 79.608154%, 39.901733%)" offset="0.53125"/><stop stop-opacity="1" stop-color="rgb(100%, 79.226685%, 39.707947%)" offset="0.5625"/><stop stop-opacity="1" stop-color="rgb(100%, 78.846741%, 39.51416%)" offset="0.59375"/><stop stop-opacity="1" stop-color="rgb(100%, 78.465271%, 39.320374%)" offset="0.625"/><stop stop-opacity="1" stop-color="rgb(100%, 78.083801%, 39.126587%)" offset="0.65625"/><stop stop-opacity="1" stop-color="rgb(100%, 77.702332%, 38.9328%)" offset="0.6875"/><stop stop-opacity="1" stop-color="rgb(100%, 77.320862%, 38.739014%)" offset="0.71875"/><stop stop-opacity="1" stop-color="rgb(100%, 76.939392%, 38.545227%)" offset="0.75"/><stop stop-opacity="1" stop-color="rgb(100%, 76.557922%, 38.35144%)" offset="0.78125"/><stop stop-opacity="1" stop-color="rgb(100%, 76.177979%, 38.157654%)" offset="0.8125"/><stop stop-opacity="1" stop-color="rgb(100%, 75.796509%, 37.963867%)" offset="0.84375"/><stop stop-opacity="1" stop-color="rgb(100%, 75.415039%, 37.770081%)" offset="0.875"/><stop stop-opacity="1" stop-color="rgb(100%, 75.033569%, 37.576294%)" offset="0.90625"/><stop stop-opacity="1" stop-color="rgb(100%, 74.6521%, 37.382507%)" offset="0.9375"/><stop stop-opacity="1" stop-color="rgb(100%, 74.27063%, 37.188721%)" offset="0.96875"/><stop stop-opacity="1" stop-color="rgb(100%, 73.88916%, 36.994934%)" offset="1"/></linearGradient><clipPath id="c512c53fa4"><path d="M 168 180 L 220 180 L 220 191 L 168 191 Z M 168 180 " clip-rule="nonzero"/></clipPath><clipPath id="8037140bc3"><path d="M 168.726562 194.730469 L 168.054688 182 L 218.984375 179.320312 L 219.65625 192.054688 Z M 168.726562 194.730469 " clip-rule="nonzero"/></clipPath><clipPath id="a6b7607c79"><path d="M 174.734375 194.414062 L 213.324219 192.386719 C 216.644531 192.210938 219.191406 189.378906 219.015625 186.0625 C 218.84375 182.742188 216.011719 180.191406 212.691406 180.367188 L 174.101562 182.394531 C 170.785156 182.570312 168.234375 185.402344 168.410156 188.722656 C 168.582031 192.039062 171.414062 194.589844 174.734375 194.414062 Z M 174.734375 194.414062 " clip-rule="nonzero"/></clipPath><clipPath id="c98a1fc1ab"><path d="M 168.726562 194.730469 L 168.09375 182.75 L 219.023438 180.070312 L 219.65625 192.054688 Z M 168.726562 194.730469 " clip-rule="nonzero"/></clipPath><clipPath id="49a1e50c67"><path d="M 168.726562 194.730469 L 168.09375 182.75 L 219.023438 180.070312 L 219.65625 192.054688 Z M 168.726562 194.730469 " clip-rule="nonzero"/></clipPath><clipPath id="0d30b24a47"><path d="M 168.726562 194.730469 L 168.09375 182.75 L 219.023438 180.070312 L 219.65625 192.054688 Z M 168.726562 194.730469 " clip-rule="nonzero"/></clipPath><clipPath id="71fe99ea01"><path d="M 217 149 L 245 149 L 245 231 L 217 231 Z M 217 149 " clip-rule="nonzero"/></clipPath><clipPath id="5569c939c6"><path d="M 225.386719 144.835938 L 244.253906 149.761719 L 223.234375 230.3125 L 204.367188 225.390625 Z M 225.386719 144.835938 " clip-rule="nonzero"/></clipPath><clipPath id="ce07ab8bb6"><path d="M 225.386719 144.835938 L 244.253906 149.761719 L 223.234375 230.3125 L 204.367188 225.390625 Z M 225.386719 144.835938 " clip-rule="nonzero"/></clipPath><clipPath id="1766aafef5"><path d="M 225.386719 144.835938 L 244.253906 149.761719 L 223.234375 230.3125 L 204.367188 225.390625 Z M 225.386719 144.835938 " clip-rule="nonzero"/></clipPath><clipPath id="441c29ad52"><path d="M 219.332031 189.648438 L 244.832031 189.648438 L 244.832031 215.148438 L 219.332031 215.148438 Z M 219.332031 189.648438 " clip-rule="nonzero"/></clipPath><clipPath id="000fdd5cd4"><path d="M 219 168 L 263 168 L 263 194 L 219 194 Z M 219 168 " clip-rule="nonzero"/></clipPath><clipPath id="e052502824"><path d="M 262.5 169.097656 L 251.785156 201.894531 L 218.992188 191.179688 L 229.703125 158.386719 Z M 262.5 169.097656 " clip-rule="nonzero"/></clipPath><clipPath id="089bf6cf06"><path d="M 262.5 169.097656 L 251.785156 201.894531 L 218.992188 191.179688 L 229.703125 158.386719 Z M 262.5 169.097656 " clip-rule="nonzero"/></clipPath><clipPath id="4244be69a6"><path d="M 262.5 169.097656 L 251.785156 201.894531 L 218.992188 191.179688 L 229.703125 158.386719 Z M 262.5 169.097656 " clip-rule="nonzero"/></clipPath></defs><g clip-path="url(#b16889fcc6)"><g clip-path="url(#4573844c6b)"><path fill="url(#4dee30ec24)" d="M 119.242188 112.5 L 119.242188 262.5 L 269.242188 262.5 L 269.242188 112.5 Z M 119.242188 112.5 " fill-rule="nonzero"/></g></g><path fill="#000000" d="M 230.410156 184.144531 C 230.410156 184.144531 230.449219 184.238281 230.523438 184.429688 L 230.523438 184.65625 C 230.523438 184.808594 230.523438 184.960938 230.523438 185.113281 C 230.523438 185.265625 230.488281 185.339844 230.410156 185.339844 L 230.183594 185.339844 C 230.183594 185.414062 230.144531 185.492188 230.070312 185.566406 C 229.917969 185.566406 229.785156 185.699219 229.671875 185.96875 C 229.59375 186.234375 229.480469 186.574219 229.328125 186.992188 C 228.949219 187.601562 228.585938 188.457031 228.246094 189.558594 C 227.902344 190.621094 227.445312 191.859375 226.875 193.265625 C 225.773438 196.078125 224.5 199.59375 223.058594 203.8125 C 222.90625 204.417969 222.714844 204.949219 222.488281 205.40625 C 222.296875 205.863281 222.125 206.414062 221.972656 207.0625 C 221.667969 207.515625 221.421875 208.050781 221.234375 208.65625 C 221.042969 209.226562 220.832031 209.855469 220.605469 210.539062 C 220.453125 210.996094 220.226562 211.527344 219.921875 212.136719 C 219.65625 212.703125 219.410156 213.351562 219.179688 214.074219 C 218.875 214.527344 218.609375 215.0625 218.382812 215.667969 C 218.152344 216.238281 217.871094 216.867188 217.527344 217.550781 L 216.730469 219.203125 C 216.578125 219.582031 216.367188 219.925781 216.101562 220.230469 C 215.835938 220.535156 215.625 220.820312 215.476562 221.085938 C 215.324219 221.238281 215.171875 221.390625 215.019531 221.542969 C 214.902344 221.695312 214.769531 221.84375 214.621094 221.996094 L 214.390625 222.453125 L 214.050781 222.453125 C 214.050781 222.53125 214.011719 222.605469 213.933594 222.683594 L 213.707031 222.683594 C 213.632812 222.683594 213.59375 222.832031 213.59375 223.136719 L 211.828125 223.136719 C 211.675781 223.136719 211.597656 223.0625 211.597656 222.910156 C 211.597656 222.757812 211.558594 222.683594 211.484375 222.683594 C 211.332031 222.683594 211.21875 222.644531 211.140625 222.566406 C 211.066406 222.492188 210.953125 222.453125 210.800781 222.453125 L 210.171875 221.3125 C 210.171875 221.160156 210.152344 221.066406 210.117188 221.027344 C 210.078125 220.992188 209.984375 220.839844 209.832031 220.570312 C 209.832031 220.421875 209.8125 220.269531 209.773438 220.117188 C 209.734375 219.964844 209.714844 219.8125 209.714844 219.660156 C 209.5625 219.660156 209.488281 219.507812 209.488281 219.203125 L 209.488281 218.976562 C 209.414062 218.976562 209.375 218.898438 209.375 218.746094 L 209.375 218.519531 C 209.375 218.140625 209.375 217.910156 209.375 217.835938 C 209.375 217.796875 209.296875 217.703125 209.148438 217.550781 L 209.148438 212.875 C 209.296875 212.417969 209.375 211.925781 209.375 211.394531 C 209.375 210.824219 209.414062 210.308594 209.488281 209.855469 C 209.640625 208.902344 209.734375 208.011719 209.773438 207.175781 C 209.8125 206.300781 209.90625 205.40625 210.058594 204.496094 C 210.363281 201 210.839844 197.484375 211.484375 193.949219 C 211.636719 192.164062 211.828125 190.375 212.054688 188.589844 C 212.28125 186.804688 212.546875 185.015625 212.851562 183.230469 C 213.003906 181.445312 213.195312 179.621094 213.421875 177.757812 C 213.6875 175.894531 213.898438 174.070312 214.050781 172.285156 C 214.203125 170.421875 214.335938 168.597656 214.449219 166.8125 C 214.5625 164.988281 214.621094 163.066406 214.621094 161.054688 C 214.621094 159.265625 214.5625 157.558594 214.449219 155.921875 C 214.335938 154.289062 214.164062 152.882812 213.933594 151.703125 C 213.785156 151.019531 213.613281 150.394531 213.421875 149.824219 C 213.230469 149.214844 212.964844 148.683594 212.625 148.226562 C 212.167969 147.542969 211.484375 146.839844 210.570312 146.117188 L 209.832031 146.117188 C 209.832031 145.964844 209.8125 145.890625 209.773438 145.890625 C 209.734375 145.890625 209.714844 145.851562 209.714844 145.773438 L 209.714844 145.660156 L 206.351562 145.660156 C 206.277344 145.660156 206.183594 145.738281 206.066406 145.890625 C 205.953125 146.039062 205.820312 146.117188 205.667969 146.117188 C 205.441406 146.117188 205.195312 146.191406 204.929688 146.34375 L 204.242188 146.34375 C 204.167969 146.574219 204.074219 146.707031 203.957031 146.742188 C 203.84375 146.78125 203.710938 146.878906 203.558594 147.027344 C 203.253906 147.027344 203.007812 147.179688 202.816406 147.484375 C 202.742188 147.484375 202.648438 147.523438 202.535156 147.597656 C 202.417969 147.675781 202.285156 147.714844 202.132812 147.714844 C 201.90625 147.941406 201.695312 148.148438 201.507812 148.339844 C 201.316406 148.492188 201.070312 148.683594 200.765625 148.910156 C 200.539062 149.0625 200.308594 149.273438 200.082031 149.539062 C 199.890625 149.804688 199.644531 150.070312 199.339844 150.335938 C 198.464844 151.210938 197.59375 152.101562 196.71875 153.015625 C 195.882812 153.925781 195.085938 154.972656 194.324219 156.152344 C 193.449219 157.253906 192.652344 158.449219 191.929688 159.742188 C 191.246094 160.996094 190.5625 162.289062 189.878906 163.617188 C 189.191406 164.796875 188.488281 166.050781 187.769531 167.382812 C 187.082031 168.675781 186.378906 169.984375 185.660156 171.316406 C 185.050781 172.492188 184.421875 173.730469 183.777344 175.019531 C 183.167969 176.273438 182.523438 177.453125 181.839844 178.554688 C 181.230469 179.886719 180.621094 181.101562 180.015625 182.203125 C 179.445312 183.269531 178.835938 184.390625 178.191406 185.566406 C 177.582031 186.671875 176.953125 187.734375 176.308594 188.761719 C 175.699219 189.75 175.09375 190.71875 174.484375 191.667969 C 173.304688 193.910156 172.203125 195.847656 171.179688 197.484375 C 170.875 197.863281 170.609375 198.300781 170.378906 198.792969 C 170.152344 199.25 169.886719 199.667969 169.582031 200.050781 C 169.429688 200.503906 169.21875 200.941406 168.953125 201.359375 C 168.726562 201.738281 168.460938 202.234375 168.15625 202.84375 C 167.207031 204.402344 166.332031 205.84375 165.535156 207.175781 C 164.734375 208.503906 163.9375 209.703125 163.140625 210.765625 C 162.457031 212.097656 161.867188 213.179688 161.371094 214.015625 C 160.839844 214.816406 160.382812 215.535156 160.003906 216.183594 C 159.699219 216.5625 159.492188 216.828125 159.375 216.980469 C 159.226562 217.132812 159.074219 217.324219 158.921875 217.550781 L 158.691406 217.777344 C 158.539062 218.386719 158.386719 218.386719 158.238281 217.777344 L 158.238281 216.980469 C 158.238281 216.90625 158.253906 216.828125 158.292969 216.753906 C 158.332031 216.675781 158.351562 216.5625 158.351562 216.410156 C 158.425781 216.335938 158.65625 215.632812 159.035156 214.300781 C 159.339844 213.617188 159.679688 212.683594 160.0625 211.507812 C 160.402344 210.328125 160.839844 208.921875 161.371094 207.289062 C 161.902344 205.882812 162.492188 204.324219 163.140625 202.613281 C 163.824219 200.902344 164.566406 199.117188 165.363281 197.253906 C 165.515625 196.648438 165.722656 196.113281 165.988281 195.660156 C 166.257812 195.164062 166.464844 194.59375 166.617188 193.949219 L 167.359375 192.582031 C 167.433594 192.199219 167.527344 191.933594 167.644531 191.78125 C 167.757812 191.59375 167.890625 191.308594 168.042969 190.925781 C 168.800781 188.835938 169.847656 186.746094 171.179688 184.65625 C 171.710938 183.324219 172.222656 182.109375 172.71875 181.007812 C 173.25 179.90625 173.839844 178.785156 174.484375 177.644531 C 175.09375 176.542969 175.738281 175.421875 176.421875 174.28125 C 177.144531 173.101562 177.847656 171.960938 178.53125 170.859375 C 179.214844 169.679688 179.9375 168.578125 180.699219 167.554688 C 181.457031 166.488281 182.257812 165.40625 183.09375 164.304688 C 183.851562 163.351562 184.652344 162.382812 185.488281 161.394531 C 186.324219 160.371094 187.160156 159.324219 187.996094 158.261719 C 188.871094 157.386719 189.742188 156.472656 190.617188 155.523438 C 191.53125 154.535156 192.40625 153.585938 193.242188 152.671875 C 194.113281 151.570312 194.988281 150.601562 195.863281 149.765625 C 196.773438 148.890625 197.707031 147.980469 198.65625 147.027344 C 199.53125 145.925781 200.441406 144.976562 201.394531 144.179688 C 202.34375 143.378906 203.371094 142.621094 204.472656 141.898438 C 204.546875 141.898438 204.644531 141.820312 204.757812 141.671875 C 204.871094 141.519531 205.003906 141.441406 205.15625 141.441406 C 205.308594 141.441406 205.441406 141.402344 205.554688 141.328125 C 205.707031 141.253906 205.859375 141.214844 206.011719 141.214844 C 206.164062 140.910156 206.390625 140.757812 206.695312 140.757812 C 206.921875 140.605469 207.226562 140.53125 207.605469 140.53125 C 207.835938 140.226562 208.121094 140.054688 208.460938 140.015625 L 209.375 139.789062 L 211.140625 139.789062 C 211.675781 139.789062 212.242188 139.960938 212.851562 140.300781 C 213.5 140.605469 214.125 140.984375 214.734375 141.441406 C 215.265625 142.125 215.816406 142.980469 216.386719 144.007812 C 216.613281 144.464844 216.863281 144.976562 217.128906 145.546875 C 217.394531 146.078125 217.621094 146.574219 217.8125 147.027344 C 217.964844 147.636719 218.117188 148.207031 218.269531 148.738281 C 218.421875 149.234375 218.535156 149.839844 218.609375 150.5625 C 218.761719 151.171875 218.894531 151.722656 219.007812 152.21875 C 219.125 152.671875 219.21875 153.207031 219.292969 153.8125 C 219.445312 154.992188 219.578125 156.1875 219.695312 157.40625 C 219.808594 158.582031 219.863281 159.722656 219.863281 160.824219 C 219.941406 162.003906 219.976562 163.125 219.976562 164.1875 C 219.976562 165.214844 219.976562 166.28125 219.976562 167.382812 C 219.902344 168.484375 219.863281 169.527344 219.863281 170.515625 C 219.863281 171.503906 219.789062 172.550781 219.636719 173.652344 C 219.5625 175.742188 219.445312 177.832031 219.292969 179.925781 C 219.140625 181.976562 218.988281 184.007812 218.839844 186.023438 C 218.6875 187.886719 218.476562 189.785156 218.210938 191.726562 C 217.945312 193.625 217.71875 195.46875 217.527344 197.253906 C 217.300781 198.8125 217.089844 200.296875 216.898438 201.703125 C 216.710938 203.109375 216.539062 204.496094 216.386719 205.863281 C 216.539062 205.101562 216.804688 204.570312 217.183594 204.265625 C 217.71875 203.164062 218.210938 202.175781 218.667969 201.300781 C 219.160156 200.390625 219.695312 199.496094 220.265625 198.625 C 221.136719 196.988281 221.992188 195.46875 222.828125 194.0625 C 223.664062 192.617188 224.445312 191.34375 225.167969 190.242188 C 225.851562 188.914062 226.476562 187.847656 227.046875 187.050781 C 227.65625 186.214844 228.1875 185.492188 228.644531 184.882812 C 228.871094 184.730469 229.082031 184.578125 229.269531 184.429688 C 229.460938 184.238281 229.632812 184.144531 229.785156 184.144531 Z M 212.511719 211.964844 L 212.28125 211.964844 Z M 212.28125 211.964844 L 212.167969 211.964844 Z M 212.28125 211.964844 " fill-opacity="0.86" fill-rule="nonzero"/><g clip-path="url(#c512c53fa4)"><g clip-path="url(#8037140bc3)"><g clip-path="url(#a6b7607c79)"><g clip-path="url(#c98a1fc1ab)"><g clip-path="url(#49a1e50c67)"><g clip-path="url(#0d30b24a47)"><path fill="#000000" d="M 168.105469 182.746094 C 183.984375 189.253906 196.964844 189.628906 212.871094 182.851562 C 214.707031 182.09375 217.199219 180.917969 219.015625 180.070312 C 218.160156 180.8125 217.277344 181.523438 216.363281 182.195312 C 201.808594 192.992188 182.757812 193.738281 168.105469 182.746094 Z M 168.105469 182.746094 " fill-opacity="1" fill-rule="nonzero"/></g></g></g></g></g></g><g clip-path="url(#71fe99ea01)"><g clip-path="url(#5569c939c6)"><g clip-path="url(#ce07ab8bb6)"><g clip-path="url(#1766aafef5)"><path fill="#000000" d="M 244.246094 149.796875 C 226.328125 171.285156 219.335938 191.285156 221.972656 219.359375 C 222.234375 222.585938 222.832031 227.039062 223.242188 230.28125 C 222.515625 228.585938 221.851562 226.863281 221.261719 225.109375 C 211.738281 197.160156 219.988281 167.164062 244.246094 149.796875 Z M 244.246094 149.796875 " fill-opacity="1" fill-rule="nonzero"/></g></g></g></g><g clip-path="url(#441c29ad52)"><path fill="#000000" d="M 243.5625 215.148438 C 242.859375 215.148438 242.292969 214.582031 242.292969 213.878906 C 242.292969 201.917969 232.5625 192.1875 220.601562 192.1875 C 219.898438 192.1875 219.332031 191.617188 219.332031 190.917969 C 219.332031 190.21875 219.898438 189.648438 220.601562 189.648438 C 223.871094 189.648438 227.042969 190.289062 230.03125 191.554688 C 232.917969 192.773438 235.507812 194.519531 237.730469 196.746094 C 239.957031 198.96875 241.703125 201.5625 242.925781 204.445312 C 244.1875 207.433594 244.828125 210.605469 244.828125 213.875 C 244.832031 214.582031 244.261719 215.148438 243.5625 215.148438 Z M 243.5625 215.148438 " fill-opacity="1" fill-rule="nonzero"/></g><g clip-path="url(#000fdd5cd4)"><g clip-path="url(#e052502824)"><g clip-path="url(#089bf6cf06)"><g clip-path="url(#4244be69a6)"><path fill="#000000" d="M 219.523438 189.550781 C 219.820312 188.648438 220.789062 188.15625 221.691406 188.449219 C 237.070312 193.472656 253.675781 185.046875 258.699219 169.664062 C 258.996094 168.765625 259.964844 168.269531 260.867188 168.566406 C 261.765625 168.859375 262.257812 169.832031 261.964844 170.730469 C 260.589844 174.9375 258.433594 178.75 255.554688 182.0625 C 252.769531 185.261719 249.4375 187.859375 245.640625 189.785156 C 241.847656 191.710938 237.78125 192.867188 233.558594 193.226562 C 229.183594 193.597656 224.832031 193.085938 220.628906 191.710938 C 219.722656 191.421875 219.230469 190.449219 219.523438 189.550781 Z M 219.523438 189.550781 " fill-opacity="1" fill-rule="nonzero"/></g></g></g></g></svg>